<?xml version="1.0" encoding="UTF-8" standalone="no"?>
<!DOCTYPE svg PUBLIC "-//W3C//DTD SVG 1.1//EN"
 "http://www.w3.org/Graphics/SVG/1.1/DTD/svg11.dtd">
<!-- Generated by graphviz version 2.43.0 (0)
 -->
<!-- Title: snakemake_dag Pages: 1 -->
<svg width="2710pt" height="374pt"
 viewBox="0.00 0.00 2710.12 374.00" xmlns="http://www.w3.org/2000/svg" xmlns:xlink="http://www.w3.org/1999/xlink">
<g id="graph0" class="graph" transform="scale(1 1) rotate(0) translate(4 370)">
<title>snakemake_dag</title>
<polygon fill="white" stroke="transparent" points="-4,4 -4,-370 2706.12,-370 2706.12,4 -4,4"/>
<!-- 0 -->
<g id="node1" class="node">
<title>0</title>
<path fill="none" stroke="#d89c56" stroke-width="2" d="M1327.12,-36C1327.12,-36 1297.12,-36 1297.12,-36 1291.12,-36 1285.12,-30 1285.12,-24 1285.12,-24 1285.12,-12 1285.12,-12 1285.12,-6 1291.12,0 1297.12,0 1297.12,0 1327.12,0 1327.12,0 1333.12,0 1339.12,-6 1339.12,-12 1339.12,-12 1339.12,-24 1339.12,-24 1339.12,-30 1333.12,-36 1327.12,-36"/>
<text text-anchor="middle" x="1312.12" y="-15.5" font-family="sans" font-size="10.00">all</text>
</g>
<!-- 1 -->
<g id="node2" class="node">
<title>1</title>
<path fill="none" stroke="#ced856" stroke-width="2" stroke-dasharray="5,2" d="M399.12,-366C399.12,-366 231.12,-366 231.12,-366 225.12,-366 219.12,-360 219.12,-354 219.12,-354 219.12,-304 219.12,-304 219.12,-298 225.12,-292 231.12,-292 231.12,-292 399.12,-292 399.12,-292 405.12,-292 411.12,-298 411.12,-304 411.12,-304 411.12,-354 411.12,-354 411.12,-360 405.12,-366 399.12,-366"/>
<text text-anchor="middle" x="315.12" y="-354" font-family="sans" font-size="10.00">get_genome</text>
<text text-anchor="middle" x="315.12" y="-343" font-family="sans" font-size="10.00">database: gencode</text>
<text text-anchor="middle" x="315.12" y="-332" font-family="sans" font-size="10.00">genome: GRCh38</text>
<text text-anchor="middle" x="315.12" y="-321" font-family="sans" font-size="10.00">outdir: /datapool/reference_genomes</text>
<text text-anchor="middle" x="315.12" y="-310" font-family="sans" font-size="10.00">release: 46</text>
<text text-anchor="middle" x="315.12" y="-299" font-family="sans" font-size="10.00">species: human</text>
</g>
<!-- 1&#45;&gt;0 -->
<g id="edge1" class="edge">
<title>1&#45;&gt;0</title>
<path fill="none" stroke="grey" stroke-width="2" d="M218.87,-314.12C151.04,-302.23 68.46,-282.77 46.12,-256 -6.34,-193.14 -19.56,-131.08 37.12,-72 81.08,-26.18 1068.97,-19.92 1274.77,-19.11"/>
<polygon fill="grey" stroke="grey" stroke-width="2" points="1275.07,-22.61 1285.05,-19.08 1275.04,-15.61 1275.07,-22.61"/>
</g>
<!-- 6 -->
<g id="node7" class="node">
<title>6</title>
<path fill="none" stroke="#56d8a9" stroke-width="2" stroke-dasharray="5,2" d="M155.12,-237C155.12,-237 67.12,-237 67.12,-237 61.12,-237 55.12,-231 55.12,-225 55.12,-225 55.12,-213 55.12,-213 55.12,-207 61.12,-201 67.12,-201 67.12,-201 155.12,-201 155.12,-201 161.12,-201 167.12,-207 167.12,-213 167.12,-213 167.12,-225 167.12,-225 167.12,-231 161.12,-237 155.12,-237"/>
<text text-anchor="middle" x="111.12" y="-216.5" font-family="sans" font-size="10.00">index_genome_fasta</text>
</g>
<!-- 1&#45;&gt;6 -->
<g id="edge30" class="edge">
<title>1&#45;&gt;6</title>
<path fill="none" stroke="grey" stroke-width="2" d="M244.57,-291.94C222.57,-280.57 198.28,-267.87 176.12,-256 167.77,-251.53 158.86,-246.66 150.4,-241.99"/>
<polygon fill="grey" stroke="grey" stroke-width="2" points="151.89,-238.81 141.45,-237.03 148.5,-244.93 151.89,-238.81"/>
</g>
<!-- 9 -->
<g id="node10" class="node">
<title>9</title>
<path fill="none" stroke="#88d856" stroke-width="2" stroke-dasharray="5,2" d="M274.62,-237C274.62,-237 197.62,-237 197.62,-237 191.62,-237 185.62,-231 185.62,-225 185.62,-225 185.62,-213 185.62,-213 185.62,-207 191.62,-201 197.62,-201 197.62,-201 274.62,-201 274.62,-201 280.62,-201 286.62,-207 286.62,-213 286.62,-213 286.62,-225 286.62,-225 286.62,-231 280.62,-237 274.62,-237"/>
<text text-anchor="middle" x="236.12" y="-216.5" font-family="sans" font-size="10.00">build_hisat2_index</text>
</g>
<!-- 1&#45;&gt;9 -->
<g id="edge33" class="edge">
<title>1&#45;&gt;9</title>
<path fill="none" stroke="grey" stroke-width="2" d="M288.6,-291.74C277.46,-276.51 264.78,-259.17 254.67,-245.35"/>
<polygon fill="grey" stroke="grey" stroke-width="2" points="257.47,-243.26 248.74,-237.26 251.82,-247.39 257.47,-243.26"/>
</g>
<!-- 10 -->
<g id="node11" class="node">
<title>10</title>
<path fill="none" stroke="#569ad8" stroke-width="2" d="M339.62,-127C339.62,-127 244.62,-127 244.62,-127 238.62,-127 232.62,-121 232.62,-115 232.62,-115 232.62,-103 232.62,-103 232.62,-97 238.62,-91 244.62,-91 244.62,-91 339.62,-91 339.62,-91 345.62,-91 351.62,-97 351.62,-103 351.62,-103 351.62,-115 351.62,-115 351.62,-121 345.62,-127 339.62,-127"/>
<text text-anchor="middle" x="292.12" y="-106.5" font-family="sans" font-size="10.00">build_cellranger_index</text>
</g>
<!-- 1&#45;&gt;10 -->
<g id="edge34" class="edge">
<title>1&#45;&gt;10</title>
<path fill="none" stroke="grey" stroke-width="2" d="M311.27,-291.51C306.68,-247.97 299.1,-176.18 294.99,-137.21"/>
<polygon fill="grey" stroke="grey" stroke-width="2" points="298.46,-136.72 293.93,-127.14 291.5,-137.45 298.46,-136.72"/>
</g>
<!-- 11 -->
<g id="node12" class="node">
<title>11</title>
<path fill="none" stroke="#68d856" stroke-width="2" d="M462.62,-127C462.62,-127 381.62,-127 381.62,-127 375.62,-127 369.62,-121 369.62,-115 369.62,-115 369.62,-103 369.62,-103 369.62,-97 375.62,-91 381.62,-91 381.62,-91 462.62,-91 462.62,-91 468.62,-91 474.62,-97 474.62,-103 474.62,-103 474.62,-115 474.62,-115 474.62,-121 468.62,-127 462.62,-127"/>
<text text-anchor="middle" x="422.12" y="-112" font-family="sans" font-size="10.00">build_star_index</text>
<text text-anchor="middle" x="422.12" y="-101" font-family="sans" font-size="10.00">sjdbOverhang: 100</text>
</g>
<!-- 1&#45;&gt;11 -->
<g id="edge36" class="edge">
<title>1&#45;&gt;11</title>
<path fill="none" stroke="grey" stroke-width="2" d="M333.03,-291.51C354.59,-247.6 390.24,-174.95 409.25,-136.22"/>
<polygon fill="grey" stroke="grey" stroke-width="2" points="412.45,-137.66 413.71,-127.14 406.16,-134.57 412.45,-137.66"/>
</g>
<!-- 12 -->
<g id="node13" class="node">
<title>12</title>
<path fill="none" stroke="#68d856" stroke-width="2" d="M585.62,-127C585.62,-127 504.62,-127 504.62,-127 498.62,-127 492.62,-121 492.62,-115 492.62,-115 492.62,-103 492.62,-103 492.62,-97 498.62,-91 504.62,-91 504.62,-91 585.62,-91 585.62,-91 591.62,-91 597.62,-97 597.62,-103 597.62,-103 597.62,-115 597.62,-115 597.62,-121 591.62,-127 585.62,-127"/>
<text text-anchor="middle" x="545.12" y="-112" font-family="sans" font-size="10.00">build_star_index</text>
<text text-anchor="middle" x="545.12" y="-101" font-family="sans" font-size="10.00">sjdbOverhang: 149</text>
</g>
<!-- 1&#45;&gt;12 -->
<g id="edge38" class="edge">
<title>1&#45;&gt;12</title>
<path fill="none" stroke="grey" stroke-width="2" d="M353.36,-291.76C400.42,-247.15 479.05,-172.62 519.45,-134.33"/>
<polygon fill="grey" stroke="grey" stroke-width="2" points="522.15,-136.6 527,-127.18 517.33,-131.52 522.15,-136.6"/>
</g>
<!-- 14 -->
<g id="node15" class="node">
<title>14</title>
<path fill="none" stroke="#56d8d0" stroke-width="2" d="M739.62,-127C739.62,-127 666.62,-127 666.62,-127 660.62,-127 654.62,-121 654.62,-115 654.62,-115 654.62,-103 654.62,-103 654.62,-97 660.62,-91 666.62,-91 666.62,-91 739.62,-91 739.62,-91 745.62,-91 751.62,-97 751.62,-103 751.62,-103 751.62,-115 751.62,-115 751.62,-121 745.62,-127 739.62,-127"/>
<text text-anchor="middle" x="703.12" y="-106.5" font-family="sans" font-size="10.00">build_rsem_index</text>
</g>
<!-- 1&#45;&gt;14 -->
<g id="edge41" class="edge">
<title>1&#45;&gt;14</title>
<path fill="none" stroke="grey" stroke-width="2" d="M411.38,-316.22C493.59,-304.44 603.82,-284.06 638.12,-256 674.94,-225.88 691.6,-170.62 698.58,-137.4"/>
<polygon fill="grey" stroke="grey" stroke-width="2" points="702.04,-137.94 700.52,-127.45 695.17,-136.6 702.04,-137.94"/>
</g>
<!-- 2 -->
<g id="node3" class="node">
<title>2</title>
<path fill="none" stroke="#d85656" stroke-width="2" stroke-dasharray="5,2" d="M1150.12,-256C1150.12,-256 982.12,-256 982.12,-256 976.12,-256 970.12,-250 970.12,-244 970.12,-244 970.12,-194 970.12,-194 970.12,-188 976.12,-182 982.12,-182 982.12,-182 1150.12,-182 1150.12,-182 1156.12,-182 1162.12,-188 1162.12,-194 1162.12,-194 1162.12,-244 1162.12,-244 1162.12,-250 1156.12,-256 1150.12,-256"/>
<text text-anchor="middle" x="1066.12" y="-244" font-family="sans" font-size="10.00">get_transcript</text>
<text text-anchor="middle" x="1066.12" y="-233" font-family="sans" font-size="10.00">database: gencode</text>
<text text-anchor="middle" x="1066.12" y="-222" font-family="sans" font-size="10.00">genome: GRCh38</text>
<text text-anchor="middle" x="1066.12" y="-211" font-family="sans" font-size="10.00">outdir: /datapool/reference_genomes</text>
<text text-anchor="middle" x="1066.12" y="-200" font-family="sans" font-size="10.00">release: 46</text>
<text text-anchor="middle" x="1066.12" y="-189" font-family="sans" font-size="10.00">species: human</text>
</g>
<!-- 2&#45;&gt;0 -->
<g id="edge2" class="edge">
<title>2&#45;&gt;0</title>
<path fill="none" stroke="grey" stroke-width="2" d="M970.01,-184.41C924.07,-167.9 878.28,-150.56 875.12,-146 856.41,-118.95 853.31,-96.62 875.12,-72 901.49,-42.24 1173.84,-25.84 1274.77,-20.74"/>
<polygon fill="grey" stroke="grey" stroke-width="2" points="1275.01,-24.24 1284.82,-20.25 1274.66,-17.25 1275.01,-24.24"/>
</g>
<!-- 13 -->
<g id="node14" class="node">
<title>13</title>
<path fill="none" stroke="#56d86b" stroke-width="2" stroke-dasharray="5,2" d="M988.12,-127C988.12,-127 896.12,-127 896.12,-127 890.12,-127 884.12,-121 884.12,-115 884.12,-115 884.12,-103 884.12,-103 884.12,-97 890.12,-91 896.12,-91 896.12,-91 988.12,-91 988.12,-91 994.12,-91 1000.12,-97 1000.12,-103 1000.12,-103 1000.12,-115 1000.12,-115 1000.12,-121 994.12,-127 988.12,-127"/>
<text text-anchor="middle" x="942.12" y="-112" font-family="sans" font-size="10.00">build_kallisto_index</text>
<text text-anchor="middle" x="942.12" y="-101" font-family="sans" font-size="10.00">kallisto_kmer_size: 31</text>
</g>
<!-- 2&#45;&gt;13 -->
<g id="edge40" class="edge">
<title>2&#45;&gt;13</title>
<path fill="none" stroke="grey" stroke-width="2" d="M1024.49,-181.74C1006.51,-166.08 985.97,-148.19 969.9,-134.19"/>
<polygon fill="grey" stroke="grey" stroke-width="2" points="971.77,-131.19 961.94,-127.26 967.18,-136.46 971.77,-131.19"/>
</g>
<!-- 15 -->
<g id="node16" class="node">
<title>15</title>
<path fill="none" stroke="#afd856" stroke-width="2" stroke-dasharray="5,2" d="M1124.12,-127C1124.12,-127 1030.12,-127 1030.12,-127 1024.12,-127 1018.12,-121 1018.12,-115 1018.12,-115 1018.12,-103 1018.12,-103 1018.12,-97 1024.12,-91 1030.12,-91 1030.12,-91 1124.12,-91 1124.12,-91 1130.12,-91 1136.12,-97 1136.12,-103 1136.12,-103 1136.12,-115 1136.12,-115 1136.12,-121 1130.12,-127 1124.12,-127"/>
<text text-anchor="middle" x="1077.12" y="-112" font-family="sans" font-size="10.00">build_salmon_index</text>
<text text-anchor="middle" x="1077.12" y="-101" font-family="sans" font-size="10.00">salmon_kmer_size: 31</text>
</g>
<!-- 2&#45;&gt;15 -->
<g id="edge43" class="edge">
<title>2&#45;&gt;15</title>
<path fill="none" stroke="grey" stroke-width="2" d="M1069.82,-181.74C1071.29,-167.23 1072.97,-150.8 1074.34,-137.33"/>
<polygon fill="grey" stroke="grey" stroke-width="2" points="1077.83,-137.56 1075.36,-127.26 1070.87,-136.85 1077.83,-137.56"/>
</g>
<!-- 3 -->
<g id="node4" class="node">
<title>3</title>
<path fill="none" stroke="#567bd8" stroke-width="2" stroke-dasharray="5,2" d="M864.12,-366C864.12,-366 696.12,-366 696.12,-366 690.12,-366 684.12,-360 684.12,-354 684.12,-354 684.12,-304 684.12,-304 684.12,-298 690.12,-292 696.12,-292 696.12,-292 864.12,-292 864.12,-292 870.12,-292 876.12,-298 876.12,-304 876.12,-304 876.12,-354 876.12,-354 876.12,-360 870.12,-366 864.12,-366"/>
<text text-anchor="middle" x="780.12" y="-354" font-family="sans" font-size="10.00">get_annotation_gtf</text>
<text text-anchor="middle" x="780.12" y="-343" font-family="sans" font-size="10.00">database: gencode</text>
<text text-anchor="middle" x="780.12" y="-332" font-family="sans" font-size="10.00">genome: GRCh38</text>
<text text-anchor="middle" x="780.12" y="-321" font-family="sans" font-size="10.00">outdir: /datapool/reference_genomes</text>
<text text-anchor="middle" x="780.12" y="-310" font-family="sans" font-size="10.00">release: 46</text>
<text text-anchor="middle" x="780.12" y="-299" font-family="sans" font-size="10.00">species: human</text>
</g>
<!-- 3&#45;&gt;0 -->
<g id="edge3" class="edge">
<title>3&#45;&gt;0</title>
<path fill="none" stroke="grey" stroke-width="2" d="M775.79,-291.94C771.2,-234.76 772.08,-124.4 838.12,-72 872.14,-45.01 1168.74,-26.66 1274.7,-20.92"/>
<polygon fill="grey" stroke="grey" stroke-width="2" points="1275.12,-24.4 1284.92,-20.37 1274.75,-17.41 1275.12,-24.4"/>
</g>
<!-- 7 -->
<g id="node8" class="node">
<title>7</title>
<path fill="none" stroke="#56c1d8" stroke-width="2" d="M617.12,-237C617.12,-237 529.12,-237 529.12,-237 523.12,-237 517.12,-231 517.12,-225 517.12,-225 517.12,-213 517.12,-213 517.12,-207 523.12,-201 529.12,-201 529.12,-201 617.12,-201 617.12,-201 623.12,-201 629.12,-207 629.12,-213 629.12,-213 629.12,-225 629.12,-225 629.12,-231 623.12,-237 617.12,-237"/>
<text text-anchor="middle" x="573.12" y="-216.5" font-family="sans" font-size="10.00">filter_gtf_annotation</text>
</g>
<!-- 3&#45;&gt;7 -->
<g id="edge31" class="edge">
<title>3&#45;&gt;7</title>
<path fill="none" stroke="grey" stroke-width="2" d="M710.91,-291.89C679.02,-275.25 642.23,-256.06 614.7,-241.69"/>
<polygon fill="grey" stroke="grey" stroke-width="2" points="616.22,-238.54 605.73,-237.01 612.98,-244.74 616.22,-238.54"/>
</g>
<!-- 8 -->
<g id="node9" class="node">
<title>8</title>
<path fill="none" stroke="#56d88a" stroke-width="2" stroke-dasharray="5,2" d="M940.12,-237C940.12,-237 820.12,-237 820.12,-237 814.12,-237 808.12,-231 808.12,-225 808.12,-225 808.12,-213 808.12,-213 808.12,-207 814.12,-201 820.12,-201 820.12,-201 940.12,-201 940.12,-201 946.12,-201 952.12,-207 952.12,-213 952.12,-213 952.12,-225 952.12,-225 952.12,-231 946.12,-237 940.12,-237"/>
<text text-anchor="middle" x="880.12" y="-216.5" font-family="sans" font-size="10.00">convert_gtf_to_bed_format</text>
</g>
<!-- 3&#45;&gt;8 -->
<g id="edge32" class="edge">
<title>3&#45;&gt;8</title>
<path fill="none" stroke="grey" stroke-width="2" d="M813.7,-291.74C827.93,-276.37 844.15,-258.85 857.01,-244.96"/>
<polygon fill="grey" stroke="grey" stroke-width="2" points="859.92,-246.97 864.14,-237.26 854.78,-242.22 859.92,-246.97"/>
</g>
<!-- 4 -->
<g id="node5" class="node">
<title>4</title>
<path fill="none" stroke="#d87556" stroke-width="2" stroke-dasharray="5,2" d="M1334.12,-146C1334.12,-146 1166.12,-146 1166.12,-146 1160.12,-146 1154.12,-140 1154.12,-134 1154.12,-134 1154.12,-84 1154.12,-84 1154.12,-78 1160.12,-72 1166.12,-72 1166.12,-72 1334.12,-72 1334.12,-72 1340.12,-72 1346.12,-78 1346.12,-84 1346.12,-84 1346.12,-134 1346.12,-134 1346.12,-140 1340.12,-146 1334.12,-146"/>
<text text-anchor="middle" x="1250.12" y="-134" font-family="sans" font-size="10.00">get_annotation_gff3</text>
<text text-anchor="middle" x="1250.12" y="-123" font-family="sans" font-size="10.00">database: gencode</text>
<text text-anchor="middle" x="1250.12" y="-112" font-family="sans" font-size="10.00">genome: GRCh38</text>
<text text-anchor="middle" x="1250.12" y="-101" font-family="sans" font-size="10.00">outdir: /datapool/reference_genomes</text>
<text text-anchor="middle" x="1250.12" y="-90" font-family="sans" font-size="10.00">release: 46</text>
<text text-anchor="middle" x="1250.12" y="-79" font-family="sans" font-size="10.00">species: human</text>
</g>
<!-- 4&#45;&gt;0 -->
<g id="edge4" class="edge">
<title>4&#45;&gt;0</title>
<path fill="none" stroke="grey" stroke-width="2" d="M1275.34,-71.8C1281.71,-62.66 1288.42,-53.03 1294.33,-44.53"/>
<polygon fill="grey" stroke="grey" stroke-width="2" points="1297.32,-46.37 1300.17,-36.16 1291.58,-42.36 1297.32,-46.37"/>
</g>
<!-- 5 -->
<g id="node6" class="node">
<title>5</title>
<path fill="none" stroke="#d8bc56" stroke-width="2" stroke-dasharray="5,2" d="M163.62,-127C163.62,-127 58.62,-127 58.62,-127 52.62,-127 46.62,-121 46.62,-115 46.62,-115 46.62,-103 46.62,-103 46.62,-97 52.62,-91 58.62,-91 58.62,-91 163.62,-91 163.62,-91 169.62,-91 175.62,-97 175.62,-103 175.62,-103 175.62,-115 175.62,-115 175.62,-121 169.62,-127 163.62,-127"/>
<text text-anchor="middle" x="111.12" y="-106.5" font-family="sans" font-size="10.00">generate_genome_sizes</text>
</g>
<!-- 5&#45;&gt;0 -->
<g id="edge5" class="edge">
<title>5&#45;&gt;0</title>
<path fill="none" stroke="grey" stroke-width="2" d="M141.29,-90.98C155.62,-83.75 173.27,-76.08 190.12,-72 402.82,-20.54 1104.95,-18.57 1274.86,-18.87"/>
<polygon fill="grey" stroke="grey" stroke-width="2" points="1275.04,-22.37 1285.05,-18.89 1275.05,-15.37 1275.04,-22.37"/>
</g>
<!-- 6&#45;&gt;5 -->
<g id="edge29" class="edge">
<title>6&#45;&gt;5</title>
<path fill="none" stroke="grey" stroke-width="2" d="M111.12,-200.65C111.12,-183.56 111.12,-157.22 111.12,-137.32"/>
<polygon fill="grey" stroke="grey" stroke-width="2" points="114.62,-137.31 111.12,-127.31 107.62,-137.31 114.62,-137.31"/>
</g>
<!-- 7&#45;&gt;0 -->
<g id="edge6" class="edge">
<title>7&#45;&gt;0</title>
<path fill="none" stroke="grey" stroke-width="2" d="M580.98,-200.95C598.41,-163.28 639.26,-75.98 645.12,-72 697.36,-36.57 1141.75,-23.1 1274.7,-19.84"/>
<polygon fill="grey" stroke="grey" stroke-width="2" points="1274.89,-23.33 1284.8,-19.59 1274.72,-16.33 1274.89,-23.33"/>
</g>
<!-- 7&#45;&gt;10 -->
<g id="edge35" class="edge">
<title>7&#45;&gt;10</title>
<path fill="none" stroke="grey" stroke-width="2" d="M517.04,-201.75C473.54,-188.5 412.11,-168.38 360.12,-146 350.36,-141.8 340.1,-136.73 330.59,-131.74"/>
<polygon fill="grey" stroke="grey" stroke-width="2" points="332.21,-128.64 321.74,-127.01 328.91,-134.81 332.21,-128.64"/>
</g>
<!-- 7&#45;&gt;11 -->
<g id="edge37" class="edge">
<title>7&#45;&gt;11</title>
<path fill="none" stroke="grey" stroke-width="2" d="M549.2,-200.89C523.57,-182.56 482.77,-153.38 454.33,-133.04"/>
<polygon fill="grey" stroke="grey" stroke-width="2" points="456.11,-130 445.94,-127.03 452.03,-135.7 456.11,-130"/>
</g>
<!-- 7&#45;&gt;12 -->
<g id="edge39" class="edge">
<title>7&#45;&gt;12</title>
<path fill="none" stroke="grey" stroke-width="2" d="M568.62,-200.65C564.17,-183.49 557.3,-156.97 552.13,-137.04"/>
<polygon fill="grey" stroke="grey" stroke-width="2" points="555.51,-136.11 549.61,-127.31 548.73,-137.87 555.51,-136.11"/>
</g>
<!-- 7&#45;&gt;14 -->
<g id="edge42" class="edge">
<title>7&#45;&gt;14</title>
<path fill="none" stroke="grey" stroke-width="2" d="M593.72,-200.89C615.59,-182.72 650.31,-153.88 674.76,-133.57"/>
<polygon fill="grey" stroke="grey" stroke-width="2" points="677.16,-136.12 682.62,-127.03 672.69,-130.73 677.16,-136.12"/>
</g>
<!-- 8&#45;&gt;0 -->
<g id="edge7" class="edge">
<title>8&#45;&gt;0</title>
<path fill="none" stroke="grey" stroke-width="2" d="M869.42,-200.68C852.3,-170.56 823.83,-108.26 856.12,-72 883.86,-40.85 1171.08,-25.21 1274.92,-20.54"/>
<polygon fill="grey" stroke="grey" stroke-width="2" points="1275.12,-24.03 1284.95,-20.1 1274.81,-17.04 1275.12,-24.03"/>
</g>
<!-- 9&#45;&gt;0 -->
<g id="edge8" class="edge">
<title>9&#45;&gt;0</title>
<path fill="none" stroke="grey" stroke-width="2" d="M227.33,-200.87C213.09,-170.47 189.77,-107.01 223.12,-72 260.16,-33.11 1087.54,-21.52 1274.71,-19.39"/>
<polygon fill="grey" stroke="grey" stroke-width="2" points="1274.92,-22.89 1284.88,-19.28 1274.84,-15.89 1274.92,-22.89"/>
</g>
<!-- 10&#45;&gt;0 -->
<g id="edge9" class="edge">
<title>10&#45;&gt;0</title>
<path fill="none" stroke="grey" stroke-width="2" d="M318.14,-90.82C330.36,-83.67 345.45,-76.08 360.12,-72 536.7,-22.89 1120.08,-19.08 1274.4,-18.95"/>
<polygon fill="grey" stroke="grey" stroke-width="2" points="1274.76,-22.45 1284.76,-18.95 1274.76,-15.45 1274.76,-22.45"/>
</g>
<!-- 11&#45;&gt;0 -->
<g id="edge10" class="edge">
<title>11&#45;&gt;0</title>
<path fill="none" stroke="grey" stroke-width="2" d="M445.24,-90.86C456.16,-83.71 469.72,-76.12 483.12,-72 634.09,-25.55 1133.63,-19.79 1274.72,-19.09"/>
<polygon fill="grey" stroke="grey" stroke-width="2" points="1275.02,-22.59 1285,-19.05 1274.99,-15.59 1275.02,-22.59"/>
</g>
<!-- 12&#45;&gt;0 -->
<g id="edge11" class="edge">
<title>12&#45;&gt;0</title>
<path fill="none" stroke="grey" stroke-width="2" d="M570.76,-90.96C582.81,-83.82 597.67,-76.22 612.12,-72 738.15,-35.17 1147.93,-22.79 1274.52,-19.8"/>
<polygon fill="grey" stroke="grey" stroke-width="2" points="1274.93,-23.29 1284.85,-19.56 1274.77,-16.29 1274.93,-23.29"/>
</g>
<!-- 13&#45;&gt;0 -->
<g id="edge12" class="edge">
<title>13&#45;&gt;0</title>
<path fill="none" stroke="grey" stroke-width="2" d="M969.25,-90.86C981.09,-84.06 995.4,-76.75 1009.12,-72 1101.53,-40.03 1216.76,-26.68 1274.89,-21.67"/>
<polygon fill="grey" stroke="grey" stroke-width="2" points="1275.38,-25.14 1285.06,-20.83 1274.8,-18.16 1275.38,-25.14"/>
</g>
<!-- 14&#45;&gt;0 -->
<g id="edge13" class="edge">
<title>14&#45;&gt;0</title>
<path fill="none" stroke="grey" stroke-width="2" d="M727.44,-90.89C738.69,-83.83 752.56,-76.31 766.12,-72 861.42,-41.69 1167.8,-25.44 1274.81,-20.58"/>
<polygon fill="grey" stroke="grey" stroke-width="2" points="1274.99,-24.08 1284.82,-20.13 1274.68,-17.08 1274.99,-24.08"/>
</g>
<!-- 15&#45;&gt;0 -->
<g id="edge14" class="edge">
<title>15&#45;&gt;0</title>
<path fill="none" stroke="grey" stroke-width="2" d="M1106.69,-90.86C1118.42,-84.46 1132.19,-77.42 1145.12,-72 1188.59,-53.77 1240.63,-38.19 1274.93,-28.73"/>
<polygon fill="grey" stroke="grey" stroke-width="2" points="1276.25,-32 1284.98,-26 1274.41,-25.24 1276.25,-32"/>
</g>
<!-- 16 -->
<g id="node17" class="node">
<title>16</title>
<path fill="none" stroke="#ced856" stroke-width="2" stroke-dasharray="5,2" d="M1755.12,-366C1755.12,-366 1587.12,-366 1587.12,-366 1581.12,-366 1575.12,-360 1575.12,-354 1575.12,-354 1575.12,-304 1575.12,-304 1575.12,-298 1581.12,-292 1587.12,-292 1587.12,-292 1755.12,-292 1755.12,-292 1761.12,-292 1767.12,-298 1767.12,-304 1767.12,-304 1767.12,-354 1767.12,-354 1767.12,-360 1761.12,-366 1755.12,-366"/>
<text text-anchor="middle" x="1671.12" y="-354" font-family="sans" font-size="10.00">get_genome</text>
<text text-anchor="middle" x="1671.12" y="-343" font-family="sans" font-size="10.00">database: gencode</text>
<text text-anchor="middle" x="1671.12" y="-332" font-family="sans" font-size="10.00">genome: GRCm39</text>
<text text-anchor="middle" x="1671.12" y="-321" font-family="sans" font-size="10.00">outdir: /datapool/reference_genomes</text>
<text text-anchor="middle" x="1671.12" y="-310" font-family="sans" font-size="10.00">release: M35</text>
<text text-anchor="middle" x="1671.12" y="-299" font-family="sans" font-size="10.00">species: mouse</text>
</g>
<!-- 16&#45;&gt;0 -->
<g id="edge15" class="edge">
<title>16&#45;&gt;0</title>
<path fill="none" stroke="grey" stroke-width="2" d="M1575.06,-312.8C1508.08,-300.3 1426.51,-280.67 1402.12,-256 1342.78,-195.98 1393.03,-147.41 1355.12,-72 1350.12,-62.05 1343,-52.27 1335.98,-43.86"/>
<polygon fill="grey" stroke="grey" stroke-width="2" points="1338.57,-41.51 1329.37,-36.27 1333.3,-46.11 1338.57,-41.51"/>
</g>
<!-- 21 -->
<g id="node22" class="node">
<title>21</title>
<path fill="none" stroke="#56d8a9" stroke-width="2" stroke-dasharray="5,2" d="M1511.12,-237C1511.12,-237 1423.12,-237 1423.12,-237 1417.12,-237 1411.12,-231 1411.12,-225 1411.12,-225 1411.12,-213 1411.12,-213 1411.12,-207 1417.12,-201 1423.12,-201 1423.12,-201 1511.12,-201 1511.12,-201 1517.12,-201 1523.12,-207 1523.12,-213 1523.12,-213 1523.12,-225 1523.12,-225 1523.12,-231 1517.12,-237 1511.12,-237"/>
<text text-anchor="middle" x="1467.12" y="-216.5" font-family="sans" font-size="10.00">index_genome_fasta</text>
</g>
<!-- 16&#45;&gt;21 -->
<g id="edge45" class="edge">
<title>16&#45;&gt;21</title>
<path fill="none" stroke="grey" stroke-width="2" d="M1600.57,-291.94C1578.57,-280.57 1554.28,-267.87 1532.12,-256 1523.77,-251.53 1514.86,-246.66 1506.4,-241.99"/>
<polygon fill="grey" stroke="grey" stroke-width="2" points="1507.89,-238.81 1497.45,-237.03 1504.5,-244.93 1507.89,-238.81"/>
</g>
<!-- 24 -->
<g id="node25" class="node">
<title>24</title>
<path fill="none" stroke="#88d856" stroke-width="2" stroke-dasharray="5,2" d="M1630.62,-237C1630.62,-237 1553.62,-237 1553.62,-237 1547.62,-237 1541.62,-231 1541.62,-225 1541.62,-225 1541.62,-213 1541.62,-213 1541.62,-207 1547.62,-201 1553.62,-201 1553.62,-201 1630.62,-201 1630.62,-201 1636.62,-201 1642.62,-207 1642.62,-213 1642.62,-213 1642.62,-225 1642.62,-225 1642.62,-231 1636.62,-237 1630.62,-237"/>
<text text-anchor="middle" x="1592.12" y="-216.5" font-family="sans" font-size="10.00">build_hisat2_index</text>
</g>
<!-- 16&#45;&gt;24 -->
<g id="edge48" class="edge">
<title>16&#45;&gt;24</title>
<path fill="none" stroke="grey" stroke-width="2" d="M1644.6,-291.74C1633.46,-276.51 1620.78,-259.17 1610.67,-245.35"/>
<polygon fill="grey" stroke="grey" stroke-width="2" points="1613.47,-243.26 1604.74,-237.26 1607.82,-247.39 1613.47,-243.26"/>
</g>
<!-- 25 -->
<g id="node26" class="node">
<title>25</title>
<path fill="none" stroke="#569ad8" stroke-width="2" d="M1695.62,-127C1695.62,-127 1600.62,-127 1600.62,-127 1594.62,-127 1588.62,-121 1588.62,-115 1588.62,-115 1588.62,-103 1588.62,-103 1588.62,-97 1594.62,-91 1600.62,-91 1600.62,-91 1695.62,-91 1695.62,-91 1701.62,-91 1707.62,-97 1707.62,-103 1707.62,-103 1707.62,-115 1707.62,-115 1707.62,-121 1701.62,-127 1695.62,-127"/>
<text text-anchor="middle" x="1648.12" y="-106.5" font-family="sans" font-size="10.00">build_cellranger_index</text>
</g>
<!-- 16&#45;&gt;25 -->
<g id="edge49" class="edge">
<title>16&#45;&gt;25</title>
<path fill="none" stroke="grey" stroke-width="2" d="M1667.27,-291.51C1662.68,-247.97 1655.1,-176.18 1650.99,-137.21"/>
<polygon fill="grey" stroke="grey" stroke-width="2" points="1654.46,-136.72 1649.93,-127.14 1647.5,-137.45 1654.46,-136.72"/>
</g>
<!-- 26 -->
<g id="node27" class="node">
<title>26</title>
<path fill="none" stroke="#68d856" stroke-width="2" d="M1818.62,-127C1818.62,-127 1737.62,-127 1737.62,-127 1731.62,-127 1725.62,-121 1725.62,-115 1725.62,-115 1725.62,-103 1725.62,-103 1725.62,-97 1731.62,-91 1737.62,-91 1737.62,-91 1818.62,-91 1818.62,-91 1824.62,-91 1830.62,-97 1830.62,-103 1830.62,-103 1830.62,-115 1830.62,-115 1830.62,-121 1824.62,-127 1818.62,-127"/>
<text text-anchor="middle" x="1778.12" y="-112" font-family="sans" font-size="10.00">build_star_index</text>
<text text-anchor="middle" x="1778.12" y="-101" font-family="sans" font-size="10.00">sjdbOverhang: 100</text>
</g>
<!-- 16&#45;&gt;26 -->
<g id="edge51" class="edge">
<title>16&#45;&gt;26</title>
<path fill="none" stroke="grey" stroke-width="2" d="M1689.03,-291.51C1710.59,-247.6 1746.24,-174.95 1765.25,-136.22"/>
<polygon fill="grey" stroke="grey" stroke-width="2" points="1768.45,-137.66 1769.71,-127.14 1762.16,-134.57 1768.45,-137.66"/>
</g>
<!-- 27 -->
<g id="node28" class="node">
<title>27</title>
<path fill="none" stroke="#68d856" stroke-width="2" d="M1941.62,-127C1941.62,-127 1860.62,-127 1860.62,-127 1854.62,-127 1848.62,-121 1848.62,-115 1848.62,-115 1848.62,-103 1848.62,-103 1848.62,-97 1854.62,-91 1860.62,-91 1860.62,-91 1941.62,-91 1941.62,-91 1947.62,-91 1953.62,-97 1953.62,-103 1953.62,-103 1953.62,-115 1953.62,-115 1953.62,-121 1947.62,-127 1941.62,-127"/>
<text text-anchor="middle" x="1901.12" y="-112" font-family="sans" font-size="10.00">build_star_index</text>
<text text-anchor="middle" x="1901.12" y="-101" font-family="sans" font-size="10.00">sjdbOverhang: 149</text>
</g>
<!-- 16&#45;&gt;27 -->
<g id="edge53" class="edge">
<title>16&#45;&gt;27</title>
<path fill="none" stroke="grey" stroke-width="2" d="M1709.36,-291.76C1756.42,-247.15 1835.05,-172.62 1875.45,-134.33"/>
<polygon fill="grey" stroke="grey" stroke-width="2" points="1878.15,-136.6 1883,-127.18 1873.33,-131.52 1878.15,-136.6"/>
</g>
<!-- 29 -->
<g id="node30" class="node">
<title>29</title>
<path fill="none" stroke="#56d8d0" stroke-width="2" d="M2095.62,-127C2095.62,-127 2022.62,-127 2022.62,-127 2016.62,-127 2010.62,-121 2010.62,-115 2010.62,-115 2010.62,-103 2010.62,-103 2010.62,-97 2016.62,-91 2022.62,-91 2022.62,-91 2095.62,-91 2095.62,-91 2101.62,-91 2107.62,-97 2107.62,-103 2107.62,-103 2107.62,-115 2107.62,-115 2107.62,-121 2101.62,-127 2095.62,-127"/>
<text text-anchor="middle" x="2059.12" y="-106.5" font-family="sans" font-size="10.00">build_rsem_index</text>
</g>
<!-- 16&#45;&gt;29 -->
<g id="edge56" class="edge">
<title>16&#45;&gt;29</title>
<path fill="none" stroke="grey" stroke-width="2" d="M1767.17,-318.5C1855.05,-307.93 1976.62,-288.01 2012.12,-256 2045.88,-225.56 2055.52,-170.8 2058.19,-137.69"/>
<polygon fill="grey" stroke="grey" stroke-width="2" points="2061.7,-137.56 2058.85,-127.35 2054.72,-137.11 2061.7,-137.56"/>
</g>
<!-- 17 -->
<g id="node18" class="node">
<title>17</title>
<path fill="none" stroke="#d85656" stroke-width="2" stroke-dasharray="5,2" d="M2506.12,-256C2506.12,-256 2338.12,-256 2338.12,-256 2332.12,-256 2326.12,-250 2326.12,-244 2326.12,-244 2326.12,-194 2326.12,-194 2326.12,-188 2332.12,-182 2338.12,-182 2338.12,-182 2506.12,-182 2506.12,-182 2512.12,-182 2518.12,-188 2518.12,-194 2518.12,-194 2518.12,-244 2518.12,-244 2518.12,-250 2512.12,-256 2506.12,-256"/>
<text text-anchor="middle" x="2422.12" y="-244" font-family="sans" font-size="10.00">get_transcript</text>
<text text-anchor="middle" x="2422.12" y="-233" font-family="sans" font-size="10.00">database: gencode</text>
<text text-anchor="middle" x="2422.12" y="-222" font-family="sans" font-size="10.00">genome: GRCm39</text>
<text text-anchor="middle" x="2422.12" y="-211" font-family="sans" font-size="10.00">outdir: /datapool/reference_genomes</text>
<text text-anchor="middle" x="2422.12" y="-200" font-family="sans" font-size="10.00">release: M35</text>
<text text-anchor="middle" x="2422.12" y="-189" font-family="sans" font-size="10.00">species: mouse</text>
</g>
<!-- 17&#45;&gt;0 -->
<g id="edge16" class="edge">
<title>17&#45;&gt;0</title>
<path fill="none" stroke="grey" stroke-width="2" d="M2325.89,-184.92C2282.6,-169.46 2239.32,-152.94 2231.12,-146 2202.09,-121.42 2220.5,-91.96 2188.12,-72 2116.01,-27.55 1508.11,-20.33 1349.73,-19.2"/>
<polygon fill="grey" stroke="grey" stroke-width="2" points="1349.56,-15.7 1339.53,-19.13 1349.51,-22.7 1349.56,-15.7"/>
</g>
<!-- 28 -->
<g id="node29" class="node">
<title>28</title>
<path fill="none" stroke="#56d86b" stroke-width="2" stroke-dasharray="5,2" d="M2344.12,-127C2344.12,-127 2252.12,-127 2252.12,-127 2246.12,-127 2240.12,-121 2240.12,-115 2240.12,-115 2240.12,-103 2240.12,-103 2240.12,-97 2246.12,-91 2252.12,-91 2252.12,-91 2344.12,-91 2344.12,-91 2350.12,-91 2356.12,-97 2356.12,-103 2356.12,-103 2356.12,-115 2356.12,-115 2356.12,-121 2350.12,-127 2344.12,-127"/>
<text text-anchor="middle" x="2298.12" y="-112" font-family="sans" font-size="10.00">build_kallisto_index</text>
<text text-anchor="middle" x="2298.12" y="-101" font-family="sans" font-size="10.00">kallisto_kmer_size: 31</text>
</g>
<!-- 17&#45;&gt;28 -->
<g id="edge55" class="edge">
<title>17&#45;&gt;28</title>
<path fill="none" stroke="grey" stroke-width="2" d="M2380.49,-181.74C2362.51,-166.08 2341.97,-148.19 2325.9,-134.19"/>
<polygon fill="grey" stroke="grey" stroke-width="2" points="2327.77,-131.19 2317.94,-127.26 2323.18,-136.46 2327.77,-131.19"/>
</g>
<!-- 30 -->
<g id="node31" class="node">
<title>30</title>
<path fill="none" stroke="#afd856" stroke-width="2" stroke-dasharray="5,2" d="M2480.12,-127C2480.12,-127 2386.12,-127 2386.12,-127 2380.12,-127 2374.12,-121 2374.12,-115 2374.12,-115 2374.12,-103 2374.12,-103 2374.12,-97 2380.12,-91 2386.12,-91 2386.12,-91 2480.12,-91 2480.12,-91 2486.12,-91 2492.12,-97 2492.12,-103 2492.12,-103 2492.12,-115 2492.12,-115 2492.12,-121 2486.12,-127 2480.12,-127"/>
<text text-anchor="middle" x="2433.12" y="-112" font-family="sans" font-size="10.00">build_salmon_index</text>
<text text-anchor="middle" x="2433.12" y="-101" font-family="sans" font-size="10.00">salmon_kmer_size: 31</text>
</g>
<!-- 17&#45;&gt;30 -->
<g id="edge58" class="edge">
<title>17&#45;&gt;30</title>
<path fill="none" stroke="grey" stroke-width="2" d="M2425.82,-181.74C2427.29,-167.23 2428.97,-150.8 2430.34,-137.33"/>
<polygon fill="grey" stroke="grey" stroke-width="2" points="2433.83,-137.56 2431.36,-127.26 2426.87,-136.85 2433.83,-137.56"/>
</g>
<!-- 18 -->
<g id="node19" class="node">
<title>18</title>
<path fill="none" stroke="#567bd8" stroke-width="2" stroke-dasharray="5,2" d="M2220.12,-366C2220.12,-366 2052.12,-366 2052.12,-366 2046.12,-366 2040.12,-360 2040.12,-354 2040.12,-354 2040.12,-304 2040.12,-304 2040.12,-298 2046.12,-292 2052.12,-292 2052.12,-292 2220.12,-292 2220.12,-292 2226.12,-292 2232.12,-298 2232.12,-304 2232.12,-304 2232.12,-354 2232.12,-354 2232.12,-360 2226.12,-366 2220.12,-366"/>
<text text-anchor="middle" x="2136.12" y="-354" font-family="sans" font-size="10.00">get_annotation_gtf</text>
<text text-anchor="middle" x="2136.12" y="-343" font-family="sans" font-size="10.00">database: gencode</text>
<text text-anchor="middle" x="2136.12" y="-332" font-family="sans" font-size="10.00">genome: GRCm39</text>
<text text-anchor="middle" x="2136.12" y="-321" font-family="sans" font-size="10.00">outdir: /datapool/reference_genomes</text>
<text text-anchor="middle" x="2136.12" y="-310" font-family="sans" font-size="10.00">release: M35</text>
<text text-anchor="middle" x="2136.12" y="-299" font-family="sans" font-size="10.00">species: mouse</text>
</g>
<!-- 18&#45;&gt;0 -->
<g id="edge17" class="edge">
<title>18&#45;&gt;0</title>
<path fill="none" stroke="grey" stroke-width="2" d="M2138.83,-291.66C2142.67,-228.36 2146.25,-101.76 2116.12,-72 2061.09,-17.64 1500.93,-17.65 1349.62,-18.66"/>
<polygon fill="grey" stroke="grey" stroke-width="2" points="1349.42,-15.16 1339.45,-18.73 1349.47,-22.16 1349.42,-15.16"/>
</g>
<!-- 22 -->
<g id="node23" class="node">
<title>22</title>
<path fill="none" stroke="#56c1d8" stroke-width="2" d="M1991.12,-237C1991.12,-237 1903.12,-237 1903.12,-237 1897.12,-237 1891.12,-231 1891.12,-225 1891.12,-225 1891.12,-213 1891.12,-213 1891.12,-207 1897.12,-201 1903.12,-201 1903.12,-201 1991.12,-201 1991.12,-201 1997.12,-201 2003.12,-207 2003.12,-213 2003.12,-213 2003.12,-225 2003.12,-225 2003.12,-231 1997.12,-237 1991.12,-237"/>
<text text-anchor="middle" x="1947.12" y="-216.5" font-family="sans" font-size="10.00">filter_gtf_annotation</text>
</g>
<!-- 18&#45;&gt;22 -->
<g id="edge46" class="edge">
<title>18&#45;&gt;22</title>
<path fill="none" stroke="grey" stroke-width="2" d="M2072.92,-291.89C2044.06,-275.39 2010.81,-256.39 1985.74,-242.07"/>
<polygon fill="grey" stroke="grey" stroke-width="2" points="1987.31,-238.94 1976.9,-237.01 1983.84,-245.01 1987.31,-238.94"/>
</g>
<!-- 23 -->
<g id="node24" class="node">
<title>23</title>
<path fill="none" stroke="#56d88a" stroke-width="2" stroke-dasharray="5,2" d="M2296.12,-237C2296.12,-237 2176.12,-237 2176.12,-237 2170.12,-237 2164.12,-231 2164.12,-225 2164.12,-225 2164.12,-213 2164.12,-213 2164.12,-207 2170.12,-201 2176.12,-201 2176.12,-201 2296.12,-201 2296.12,-201 2302.12,-201 2308.12,-207 2308.12,-213 2308.12,-213 2308.12,-225 2308.12,-225 2308.12,-231 2302.12,-237 2296.12,-237"/>
<text text-anchor="middle" x="2236.12" y="-216.5" font-family="sans" font-size="10.00">convert_gtf_to_bed_format</text>
</g>
<!-- 18&#45;&gt;23 -->
<g id="edge47" class="edge">
<title>18&#45;&gt;23</title>
<path fill="none" stroke="grey" stroke-width="2" d="M2169.7,-291.74C2183.93,-276.37 2200.15,-258.85 2213.01,-244.96"/>
<polygon fill="grey" stroke="grey" stroke-width="2" points="2215.92,-246.97 2220.14,-237.26 2210.78,-242.22 2215.92,-246.97"/>
</g>
<!-- 19 -->
<g id="node20" class="node">
<title>19</title>
<path fill="none" stroke="#d87556" stroke-width="2" stroke-dasharray="5,2" d="M2690.12,-146C2690.12,-146 2522.12,-146 2522.12,-146 2516.12,-146 2510.12,-140 2510.12,-134 2510.12,-134 2510.12,-84 2510.12,-84 2510.12,-78 2516.12,-72 2522.12,-72 2522.12,-72 2690.12,-72 2690.12,-72 2696.12,-72 2702.12,-78 2702.12,-84 2702.12,-84 2702.12,-134 2702.12,-134 2702.12,-140 2696.12,-146 2690.12,-146"/>
<text text-anchor="middle" x="2606.12" y="-134" font-family="sans" font-size="10.00">get_annotation_gff3</text>
<text text-anchor="middle" x="2606.12" y="-123" font-family="sans" font-size="10.00">database: gencode</text>
<text text-anchor="middle" x="2606.12" y="-112" font-family="sans" font-size="10.00">genome: GRCm39</text>
<text text-anchor="middle" x="2606.12" y="-101" font-family="sans" font-size="10.00">outdir: /datapool/reference_genomes</text>
<text text-anchor="middle" x="2606.12" y="-90" font-family="sans" font-size="10.00">release: M35</text>
<text text-anchor="middle" x="2606.12" y="-79" font-family="sans" font-size="10.00">species: mouse</text>
</g>
<!-- 19&#45;&gt;0 -->
<g id="edge18" class="edge">
<title>19&#45;&gt;0</title>
<path fill="none" stroke="grey" stroke-width="2" d="M2510,-73.85C2507.02,-73.18 2504.06,-72.56 2501.12,-72 2272.33,-28.61 1524.71,-20.54 1349.23,-19.23"/>
<polygon fill="grey" stroke="grey" stroke-width="2" points="1349.22,-15.73 1339.2,-19.16 1349.17,-22.73 1349.22,-15.73"/>
</g>
<!-- 20 -->
<g id="node21" class="node">
<title>20</title>
<path fill="none" stroke="#d8bc56" stroke-width="2" stroke-dasharray="5,2" d="M1519.62,-127C1519.62,-127 1414.62,-127 1414.62,-127 1408.62,-127 1402.62,-121 1402.62,-115 1402.62,-115 1402.62,-103 1402.62,-103 1402.62,-97 1408.62,-91 1414.62,-91 1414.62,-91 1519.62,-91 1519.62,-91 1525.62,-91 1531.62,-97 1531.62,-103 1531.62,-103 1531.62,-115 1531.62,-115 1531.62,-121 1525.62,-127 1519.62,-127"/>
<text text-anchor="middle" x="1467.12" y="-106.5" font-family="sans" font-size="10.00">generate_genome_sizes</text>
</g>
<!-- 20&#45;&gt;0 -->
<g id="edge19" class="edge">
<title>20&#45;&gt;0</title>
<path fill="none" stroke="grey" stroke-width="2" d="M1437.24,-90.84C1411.79,-76.23 1375.15,-55.19 1348.1,-39.66"/>
<polygon fill="grey" stroke="grey" stroke-width="2" points="1349.74,-36.56 1339.32,-34.62 1346.25,-42.63 1349.74,-36.56"/>
</g>
<!-- 21&#45;&gt;20 -->
<g id="edge44" class="edge">
<title>21&#45;&gt;20</title>
<path fill="none" stroke="grey" stroke-width="2" d="M1467.12,-200.65C1467.12,-183.56 1467.12,-157.22 1467.12,-137.32"/>
<polygon fill="grey" stroke="grey" stroke-width="2" points="1470.62,-137.31 1467.12,-127.31 1463.62,-137.31 1470.62,-137.31"/>
</g>
<!-- 22&#45;&gt;0 -->
<g id="edge20" class="edge">
<title>22&#45;&gt;0</title>
<path fill="none" stroke="grey" stroke-width="2" d="M1956.14,-200.99C1970.78,-170.78 1994.93,-107.6 1962.12,-72 1920.42,-26.76 1480.93,-20.14 1349.22,-19.17"/>
<polygon fill="grey" stroke="grey" stroke-width="2" points="1349.23,-15.67 1339.21,-19.1 1349.19,-22.67 1349.23,-15.67"/>
</g>
<!-- 22&#45;&gt;25 -->
<g id="edge50" class="edge">
<title>22&#45;&gt;25</title>
<path fill="none" stroke="grey" stroke-width="2" d="M1891.03,-203.65C1843.6,-190.78 1774.29,-170.22 1716.12,-146 1706.31,-141.91 1696.03,-136.89 1686.52,-131.91"/>
<polygon fill="grey" stroke="grey" stroke-width="2" points="1688.14,-128.81 1677.67,-127.17 1684.84,-134.98 1688.14,-128.81"/>
</g>
<!-- 22&#45;&gt;26 -->
<g id="edge52" class="edge">
<title>22&#45;&gt;26</title>
<path fill="none" stroke="grey" stroke-width="2" d="M1920.34,-200.89C1891.42,-182.4 1845.21,-152.87 1813.35,-132.51"/>
<polygon fill="grey" stroke="grey" stroke-width="2" points="1815.09,-129.47 1804.78,-127.03 1811.32,-135.37 1815.09,-129.47"/>
</g>
<!-- 22&#45;&gt;27 -->
<g id="edge54" class="edge">
<title>22&#45;&gt;27</title>
<path fill="none" stroke="grey" stroke-width="2" d="M1939.73,-200.65C1932.39,-183.41 1921.02,-156.73 1912.52,-136.77"/>
<polygon fill="grey" stroke="grey" stroke-width="2" points="1915.63,-135.14 1908.49,-127.31 1909.19,-137.88 1915.63,-135.14"/>
</g>
<!-- 22&#45;&gt;29 -->
<g id="edge57" class="edge">
<title>22&#45;&gt;29</title>
<path fill="none" stroke="grey" stroke-width="2" d="M1965.12,-200.65C1983.73,-182.7 2012.95,-154.52 2033.87,-134.35"/>
<polygon fill="grey" stroke="grey" stroke-width="2" points="2036.4,-136.77 2041.17,-127.31 2031.54,-131.73 2036.4,-136.77"/>
</g>
<!-- 23&#45;&gt;0 -->
<g id="edge21" class="edge">
<title>23&#45;&gt;0</title>
<path fill="none" stroke="grey" stroke-width="2" d="M2227.23,-200.93C2207.87,-164.06 2162.62,-79.68 2150.12,-72 2081.28,-29.72 1503.29,-20.92 1349.56,-19.32"/>
<polygon fill="grey" stroke="grey" stroke-width="2" points="1349.27,-15.82 1339.23,-19.22 1349.2,-22.82 1349.27,-15.82"/>
</g>
<!-- 24&#45;&gt;0 -->
<g id="edge22" class="edge">
<title>24&#45;&gt;0</title>
<path fill="none" stroke="grey" stroke-width="2" d="M1588.2,-200.86C1579.93,-166.2 1559.85,-89.6 1540.12,-72 1512.22,-47.1 1406.59,-30.61 1349.42,-23.31"/>
<polygon fill="grey" stroke="grey" stroke-width="2" points="1349.69,-19.81 1339.34,-22.05 1348.83,-26.76 1349.69,-19.81"/>
</g>
<!-- 25&#45;&gt;0 -->
<g id="edge23" class="edge">
<title>25&#45;&gt;0</title>
<path fill="none" stroke="grey" stroke-width="2" d="M1617.54,-90.96C1604.48,-84.26 1588.87,-76.99 1574.12,-72 1496.39,-45.71 1401.05,-30.45 1349.5,-23.53"/>
<polygon fill="grey" stroke="grey" stroke-width="2" points="1349.86,-20.05 1339.49,-22.22 1348.95,-26.99 1349.86,-20.05"/>
</g>
<!-- 26&#45;&gt;0 -->
<g id="edge24" class="edge">
<title>26&#45;&gt;0</title>
<path fill="none" stroke="grey" stroke-width="2" d="M1753.87,-90.91C1742.83,-83.95 1729.32,-76.49 1716.12,-72 1586.56,-27.87 1422.07,-20.17 1349.45,-19.04"/>
<polygon fill="grey" stroke="grey" stroke-width="2" points="1349.46,-15.54 1339.42,-18.92 1349.38,-22.54 1349.46,-15.54"/>
</g>
<!-- 27&#45;&gt;0 -->
<g id="edge25" class="edge">
<title>27&#45;&gt;0</title>
<path fill="none" stroke="grey" stroke-width="2" d="M1877.22,-90.91C1866.15,-83.85 1852.5,-76.33 1839.12,-72 1747.57,-42.35 1453.42,-25.76 1349.18,-20.69"/>
<polygon fill="grey" stroke="grey" stroke-width="2" points="1349.28,-17.19 1339.13,-20.21 1348.95,-24.18 1349.28,-17.19"/>
</g>
<!-- 28&#45;&gt;0 -->
<g id="edge26" class="edge">
<title>28&#45;&gt;0</title>
<path fill="none" stroke="grey" stroke-width="2" d="M2270.45,-90.85C2257.48,-83.7 2241.52,-76.11 2226.12,-72 2056.46,-26.72 1498.82,-20.12 1349.29,-19.16"/>
<polygon fill="grey" stroke="grey" stroke-width="2" points="1349.27,-15.66 1339.25,-19.1 1349.22,-22.66 1349.27,-15.66"/>
</g>
<!-- 29&#45;&gt;0 -->
<g id="edge27" class="edge">
<title>29&#45;&gt;0</title>
<path fill="none" stroke="grey" stroke-width="2" d="M2035.14,-90.95C2023.84,-83.82 2009.85,-76.22 1996.12,-72 1873.61,-34.34 1473.63,-22.54 1349.32,-19.74"/>
<polygon fill="grey" stroke="grey" stroke-width="2" points="1349.25,-16.24 1339.17,-19.52 1349.09,-23.23 1349.25,-16.24"/>
</g>
<!-- 30&#45;&gt;0 -->
<g id="edge28" class="edge">
<title>30&#45;&gt;0</title>
<path fill="none" stroke="grey" stroke-width="2" d="M2407.44,-90.98C2395.16,-83.76 2379.93,-76.08 2365.12,-72 2168.04,-17.75 1513.34,-17.82 1349.53,-18.72"/>
<polygon fill="grey" stroke="grey" stroke-width="2" points="1349.44,-15.22 1339.46,-18.78 1349.48,-22.22 1349.44,-15.22"/>
</g>
</g>
</svg>
